<svg width="10083" height="9377" viewBox="0 0 10083 9377" fill="none" xmlns="http://www.w3.org/2000/svg">
<path fill-rule="evenodd" clip-rule="evenodd" d="M5247.33 173.535C2620.43 1292.08 2211.9 3818.24 3011.95 6320.7C2810.98 6278.27 2609.28 6219.43 2407.33 6143.19C1962.25 4543.2 2008.99 2982.45 2690.39 1734.92C2065.5 2375.13 1692.05 3277.08 1643.13 4148.81C1604.73 4832.19 1759.06 5465.75 2090.64 6009.32C1825.92 5885.34 1561.17 5730.62 1297.34 5542.92C757.927 3913.87 1422.04 2027.51 2675.54 1046.5C3078.29 731.274 3549.95 445.047 4289.19 226.082C4444.89 179.975 4612.01 136.308 4783.38 95.4578C4940.51 112.009 5095.36 138.27 5247.33 173.535Z" fill="#FBC707"/>
<path fill-rule="evenodd" clip-rule="evenodd" d="M8044.21 6170.79C8310.71 3324.14 6259.13 1773.33 3644.57 1289.72C3781.24 1136.03 3933.11 990.41 4100.85 853.824C5680.26 1210.83 7008.71 1951.34 7802.99 3073.88C7506.21 2235.08 6854.71 1496.46 6082.47 1056.04C5563.04 759.799 5011.35 604.75 4456.11 594.009C4693.66 438.005 4956.92 297.244 5247.2 173.612C6847.29 545.437 8129.15 1911.02 8433.51 3367.98C8536.86 3862.66 8582.52 4404.25 8445.22 5148.58C8401.58 5385.25 8341.02 5642.1 8273.62 5897.11C8201.37 5992.44 8124.73 6083.68 8044.21 6170.79" fill="#2D74B7"/>
<path fill-rule="evenodd" clip-rule="evenodd" d="M1297.42 5542.97C3645.73 7214.3 6071.02 6269.26 7848.63 4308.57C7914.23 4499.68 7965.9 4699.96 8002.5 4909.52C6850.99 6085.16 5484.29 6838.07 4061.5 6916.8C4946.91 7107.07 5930.32 6948.75 6717.15 6533.81C7296.71 6228.19 7749.03 5801.83 8050.87 5284.03C8074.75 5564.4 8073.31 5859.91 8044.21 6170.86C6896.65 7412.51 4955.07 7814.8 3476.09 7289.78C2991.41 7117.73 2495.96 6872.98 1919.59 6369.58C1766.64 6235.99 1607.6 6085.24 1450.57 5928.93C1391.6 5802.31 1340.65 5673.47 1297.42 5542.97" fill="#F14F1B"/>
<path fill-rule="evenodd" clip-rule="evenodd" d="M8766.19 2937C8244.09 1558.79 6972.42 386.792 5515.39 -0.000349997C6928.4 490.275 8070.1 1438.68 8545.61 2878.99C8620.84 2894.08 8694.45 2913.55 8766.19 2937Z" fill="#2D74B7"/>
<path fill-rule="evenodd" clip-rule="evenodd" d="M3830.91 7830.54C5310.69 8076.85 6982.9 7584.29 8053.43 6541.88C6913.4 7495.19 5503.91 7989.34 3992.49 7672.48C3941.53 7728.74 3887.52 7781.44 3830.91 7830.54" fill="#F14F1B"/>
<path fill-rule="evenodd" clip-rule="evenodd" d="M1929.48 1115.88C971.797 2247.78 571.255 3912.36 957.774 5341.54C684.779 3897.95 952.586 2455.42 1988.47 1331.95C1964.17 1260.59 1944.6 1188.45 1929.48 1115.88Z" fill="#FBC707"/>
<path fill-rule="evenodd" clip-rule="evenodd" d="M3739.86 3224.96C4104.16 3258.87 4477.17 3234.32 4851.88 3159.13C4808.08 2802.57 4734.06 2440.46 4633 2077.81C4818.46 2124.93 5004.13 2187.38 5189.54 2266.04C5250.8 2524.65 5298.36 2781.72 5331.65 3035.88C5671.5 2929.78 6010.22 2784.69 6342.6 2606.32C6339.16 2793.67 6322.41 2983.81 6291.49 3176.36C5988.98 3322.13 5683.63 3440.65 5378.35 3529.45C5425.94 4358.8 5311.23 5146.59 5010.81 5843.94C4771.92 5953.48 4530.05 6053.44 4308.22 6133.63C4757.15 5415.69 4932.57 4556.96 4892.71 3645.36C4544.9 3710.05 4199.3 3734.3 3860.35 3714.4C3829.88 3577.92 3796.01 3436.43 3758.46 3294.23C3752.34 3271.17 3746.13 3248.08 3739.86 3224.96" fill="#F14F1B"/>
<path d="M100.695 9188H0.195312V8549H100.695V9188Z" fill="#333030"/>
<path d="M430.359 9040C361.693 9040 309.026 9025.33 272.359 8996C235.693 8966.67 217.359 8924.83 217.359 8870.5V8862.5C217.359 8828.17 224.526 8798.5 238.859 8773.5C253.193 8748.17 276.026 8728.5 307.359 8714.5C339.026 8700.17 380.359 8692.17 431.359 8690.5L685.359 8682V8758.5L549.359 8752.5V8758C568.693 8763 584.693 8770.83 597.359 8781.5C610.359 8791.83 620.193 8804.83 626.859 8820.5C633.526 8836.17 636.859 8854.67 636.859 8876V8881.5C636.859 8932.83 619.359 8972.17 584.359 8999.5C549.693 9026.5 498.359 9040 430.359 9040ZM426.359 9298.5H438.859C467.193 9298.5 491.193 9296.5 510.859 9292.5C530.526 9288.5 545.526 9282.17 555.859 9273.5C566.526 9264.83 571.859 9253.33 571.859 9239V9237.5C571.859 9220.5 565.859 9207.67 553.859 9199C541.859 9190.67 521.026 9185.17 491.359 9182.5L350.359 9169L374.859 9168C358.859 9170.67 344.693 9174.83 332.359 9180.5C320.359 9185.83 310.859 9192.83 303.859 9201.5C297.193 9210.5 293.859 9221.5 293.859 9234.5V9235.5C293.859 9250.83 299.026 9263.17 309.359 9272.5C320.026 9281.83 335.193 9288.5 354.859 9292.5C374.859 9296.5 398.693 9298.5 426.359 9298.5ZM420.359 9376.5C375.359 9376.5 336.526 9372.5 303.859 9364.5C271.526 9356.83 246.526 9344.33 228.859 9327C211.526 9310 202.859 9287.33 202.859 9259V9257C202.859 9238 207.026 9222 215.359 9209C224.026 9196 235.693 9185.67 250.359 9178C265.359 9170 282.026 9164.67 300.359 9162V9157C276.026 9152 257.859 9143.83 245.859 9132.5C234.193 9120.83 228.359 9105.83 228.359 9087.5V9087C228.359 9074.33 231.193 9063.5 236.859 9054.5C242.526 9045.17 251.026 9037.83 262.359 9032.5C274.026 9026.83 288.526 9023.17 305.859 9021.5V9010.5L408.859 9035.5L371.359 9034C351.693 9034.33 338.026 9036.83 330.359 9041.5C323.026 9046.17 319.359 9052.83 319.359 9061.5V9062C319.359 9072 324.859 9079.5 335.859 9084.5C347.193 9089.17 366.193 9093 392.859 9096L511.859 9109C564.526 9114.67 603.026 9127.5 627.359 9147.5C651.693 9167.5 663.859 9197.83 663.859 9238.5V9241C663.859 9272.33 654.693 9298 636.359 9318C618.359 9338 592.359 9352.67 558.359 9362C524.693 9371.67 484.193 9376.5 436.859 9376.5H420.359ZM428.859 8968C454.526 8968 475.859 8964.33 492.859 8957C510.193 8949.33 523.193 8938 531.859 8923C540.526 8908 544.859 8889.67 544.859 8868V8860.5C544.859 8839.17 540.526 8821.17 531.859 8806.5C523.526 8791.83 510.859 8780.67 493.859 8773C477.193 8765.33 456.026 8761.5 430.359 8761.5H427.859C400.193 8761.5 377.693 8765.67 360.359 8774C343.026 8782 330.359 8793.5 322.359 8808.5C314.693 8823.17 310.859 8840.67 310.859 8861V8868C310.859 8889.67 315.193 8908 323.859 8923C332.526 8938 345.526 8949.33 362.859 8957C380.526 8964.33 402.526 8968 428.859 8968Z" fill="#333030"/>
<path d="M845.438 8892.5L824.438 8816H848.438C858.771 8777.33 876.104 8747 900.438 8725C924.771 8702.67 957.937 8691.5 999.938 8691.5C1009.94 8691.5 1018.77 8692.33 1026.44 8694C1034.44 8695.33 1041.6 8697 1047.94 8699L1053.94 8794.5C1045.94 8791.83 1036.94 8789.83 1026.94 8788.5C1016.94 8786.83 1006.1 8786 994.438 8786C958.771 8786 927.938 8795.17 901.938 8813.5C875.937 8831.83 857.104 8858.17 845.438 8892.5ZM751.438 9188V8699H846.938L842.438 8841.5L849.438 8848.5V9188H751.438Z" fill="#333030"/>
<path d="M1331.17 9199.5C1253.17 9199.5 1194.67 9181 1155.67 9144C1117.01 9106.67 1097.67 9053 1097.67 8983V8903C1097.67 8834 1115.67 8780.67 1151.67 8743C1188.01 8705 1240.84 8686 1310.17 8686C1357.17 8686 1396.34 8694.67 1427.67 8712C1459.01 8729 1482.51 8753.17 1498.17 8784.5C1513.84 8815.83 1521.67 8853 1521.67 8896V8914.5C1521.67 8925.83 1521.17 8937.33 1520.17 8949C1519.17 8960.67 1517.84 8971.83 1516.17 8982.5H1426.17C1426.84 8965.17 1427.17 8948.83 1427.17 8933.5C1427.51 8918.17 1427.67 8904.17 1427.67 8891.5C1427.67 8864.5 1423.34 8841.67 1414.67 8823C1406.01 8804.33 1393.01 8790.17 1375.67 8780.5C1358.34 8770.5 1336.51 8765.5 1310.17 8765.5C1271.17 8765.5 1242.17 8776.67 1223.17 8799C1204.17 8821 1194.67 8852.5 1194.67 8893.5V8939.5L1195.17 8951V8994.5C1195.17 9012.83 1197.84 9029.5 1203.17 9044.5C1208.84 9059.5 1217.67 9072.5 1229.67 9083.5C1242.01 9094.17 1257.84 9102.5 1277.17 9108.5C1296.51 9114.17 1320.01 9117 1347.67 9117C1379.01 9117 1408.34 9113 1435.67 9105C1463.34 9097 1489.34 9086.33 1513.67 9073L1504.67 9156.5C1482.67 9169.5 1457.01 9180 1427.67 9188C1398.67 9195.67 1366.51 9199.5 1331.17 9199.5ZM1149.67 8982.5V8909H1496.17V8982.5H1149.67Z" fill="#333030"/>
<path d="M1636.53 9103V8699H1734.53V9103H1636.53ZM1685.53 8627C1666.2 8627 1651.7 8622.17 1642.03 8612.5C1632.7 8602.5 1628.03 8588.83 1628.03 8571.5V8569.5C1628.03 8552.17 1632.7 8538.67 1642.03 8529C1651.7 8519 1666.2 8514 1685.53 8514C1704.86 8514 1719.2 8519 1728.53 8529C1738.2 8538.67 1743.03 8552.17 1743.03 8569.5V8571.5C1743.03 8589.17 1738.2 8602.83 1728.53 8612.5C1719.2 8622.17 1704.86 8627 1685.53 8627ZM1586.53 9367C1572.2 9367 1558.7 9365.83 1546.03 9363.5C1533.03 9361.17 1522.03 9358.33 1513.03 9355L1505.03 9275.5C1513.7 9279.17 1522.86 9282 1532.53 9284C1541.86 9286 1551.7 9287 1562.03 9287C1590.7 9287 1610.2 9279.33 1620.53 9264C1631.2 9248.67 1636.53 9226.83 1636.53 9198.5V9057.5H1734.53V9203.5C1734.53 9237.17 1729.7 9266.17 1720.03 9290.5C1710.7 9315.17 1695.2 9334 1673.53 9347C1651.86 9360.33 1622.86 9367 1586.53 9367Z" fill="#333030"/>
<path d="M2147.34 9188L2151.34 9072L2147.84 9057V8903L2148.34 8878.5C2148.34 8840.83 2138.67 8813.17 2119.34 8795.5C2100.34 8777.83 2069.67 8769 2027.34 8769C1993 8769 1961.17 8773.83 1931.84 8783.5C1902.5 8793.17 1876 8804.33 1852.34 8817L1861.34 8735C1874.67 8727.33 1890.34 8719.83 1908.34 8712.5C1926.34 8705.17 1946.67 8699.17 1969.34 8694.5C1992 8689.83 2016.84 8687.5 2043.84 8687.5C2080.84 8687.5 2112.17 8692 2137.84 8701C2163.5 8709.67 2184.17 8722.33 2199.84 8739C2215.5 8755.67 2226.84 8775.67 2233.84 8799C2241.17 8822.33 2244.84 8848.33 2244.84 8877V9188H2147.34ZM1981.84 9199C1933.5 9199 1896.5 9187.17 1870.84 9163.5C1845.17 9139.5 1832.34 9105.5 1832.34 9061.5V9046.5C1832.34 8999.83 1846.67 8965.33 1875.34 8943C1904.34 8920.33 1949.84 8904.67 2011.84 8896L2158.84 8875L2164.34 8946L2023.34 8966C1989.67 8970.67 1965.67 8978.83 1951.34 8990.5C1937 9001.83 1929.84 9018.67 1929.84 9041V9048C1929.84 9070.33 1936.67 9087.5 1950.34 9099.5C1964.34 9111.5 1985.5 9117.5 2013.84 9117.5C2039.84 9117.5 2062.17 9113.17 2080.84 9104.5C2099.5 9095.83 2114.67 9084.33 2126.34 9070C2138 9055.33 2146 9039.17 2150.34 9021.5L2163.84 9087H2145.84C2140.5 9107 2131.67 9125.5 2119.34 9142.5C2107 9159.5 2089.67 9173.17 2067.34 9183.5C2045.34 9193.83 2016.84 9199 1981.84 9199Z" fill="#333030"/>
<path d="M2614.12 9188V9105.5H2805.62C2846.28 9105.5 2875.12 9097.17 2892.12 9080.5C2909.12 9063.83 2917.62 9040.5 2917.62 9010.5V8995C2917.62 8964.33 2908.95 8940.83 2891.62 8924.5C2874.28 8907.83 2844.28 8899.5 2801.62 8899.5H2613.62V8820.5H2800.62C2838.95 8820.5 2866.12 8812.5 2882.12 8796.5C2898.45 8780.17 2906.62 8757.5 2906.62 8728.5V8720.5C2906.62 8692.17 2898.78 8670.17 2883.12 8654.5C2867.45 8638.83 2839.78 8631 2800.12 8631H2612.12V8549H2809.62C2879.95 8549 2930.45 8562.5 2961.12 8589.5C2991.78 8616.17 3007.12 8654.5 3007.12 8704.5V8713.5C3007.12 8751.83 2998.28 8781.67 2980.62 8803C2962.95 8824 2935.62 8837 2898.62 8842V8847C2940.95 8855.33 2971.62 8871.5 2990.62 8895.5C3009.95 8919.5 3019.62 8953.33 3019.62 8997V9016C3019.62 9070.67 3003.62 9113 2971.62 9143C2939.62 9173 2887.78 9188 2816.12 9188H2614.12ZM2544.62 9188V8549H2643.62V9188H2544.62Z" fill="#333030"/>
<path d="M3412.96 9188L3416.96 9072L3413.46 9057V8903L3413.96 8878.5C3413.96 8840.83 3404.29 8813.17 3384.96 8795.5C3365.96 8777.83 3335.29 8769 3292.96 8769C3258.63 8769 3226.79 8773.83 3197.46 8783.5C3168.13 8793.17 3141.63 8804.33 3117.96 8817L3126.96 8735C3140.29 8727.33 3155.96 8719.83 3173.96 8712.5C3191.96 8705.17 3212.29 8699.17 3234.96 8694.5C3257.63 8689.83 3282.46 8687.5 3309.46 8687.5C3346.46 8687.5 3377.79 8692 3403.46 8701C3429.13 8709.67 3449.79 8722.33 3465.46 8739C3481.13 8755.67 3492.46 8775.67 3499.46 8799C3506.79 8822.33 3510.46 8848.33 3510.46 8877V9188H3412.96ZM3247.46 9199C3199.13 9199 3162.13 9187.17 3136.46 9163.5C3110.79 9139.5 3097.96 9105.5 3097.96 9061.5V9046.5C3097.96 8999.83 3112.29 8965.33 3140.96 8943C3169.96 8920.33 3215.46 8904.67 3277.46 8896L3424.46 8875L3429.96 8946L3288.96 8966C3255.29 8970.67 3231.29 8978.83 3216.96 8990.5C3202.63 9001.83 3195.46 9018.67 3195.46 9041V9048C3195.46 9070.33 3202.29 9087.5 3215.96 9099.5C3229.96 9111.5 3251.13 9117.5 3279.46 9117.5C3305.46 9117.5 3327.79 9113.17 3346.46 9104.5C3365.13 9095.83 3380.29 9084.33 3391.96 9070C3403.63 9055.33 3411.63 9039.17 3415.96 9021.5L3429.46 9087H3411.46C3406.13 9107 3397.29 9125.5 3384.96 9142.5C3372.63 9159.5 3355.29 9173.17 3332.96 9183.5C3310.96 9193.83 3282.46 9199 3247.46 9199Z" fill="#333030"/>
<path d="M3803.55 9198C3764.55 9198 3733.22 9192.17 3709.55 9180.5C3685.89 9168.5 3668.72 9150.67 3658.05 9127C3647.39 9103 3642.05 9073.17 3642.05 9037.5V8738.5H3739.05V9026C3739.05 9056 3745.89 9078 3759.55 9092C3773.22 9106 3796.22 9113 3828.55 9113C3847.89 9113 3866.39 9111 3884.05 9107C3901.72 9103 3918.05 9097.33 3933.05 9090L3924.55 9173C3908.55 9181 3890.05 9187.17 3869.05 9191.5C3848.05 9195.83 3826.22 9198 3803.55 9198ZM3565.55 8783V8705H3928.55L3920.05 8783H3565.55ZM3643.05 8713.5L3642.55 8579L3740.55 8567.5L3736.55 8713.5H3643.05Z" fill="#333030"/>
<path d="M4018.56 9188V8699H4116.56V9188H4018.56ZM4067.56 8627C4048.23 8627 4033.73 8622.17 4024.06 8612.5C4014.73 8602.5 4010.06 8588.83 4010.06 8571.5V8569.5C4010.06 8552.17 4014.73 8538.67 4024.06 8529C4033.73 8519 4048.23 8514 4067.56 8514C4086.9 8514 4101.23 8519 4110.56 8529C4120.23 8538.67 4125.06 8552.17 4125.06 8569.5V8571.5C4125.06 8589.17 4120.23 8602.83 4110.56 8612.5C4101.23 8622.17 4086.9 8627 4067.56 8627Z" fill="#333030"/>
<path d="M4397.72 9199.5C4358.39 9199.5 4323.89 9195.5 4294.22 9187.5C4264.55 9179.17 4239.72 9170.17 4219.72 9160.5L4210.72 9071C4235.39 9083.33 4262.55 9094.17 4292.22 9103.5C4321.89 9112.5 4355.22 9117 4392.22 9117C4427.89 9117 4454.22 9111.83 4471.22 9101.5C4488.55 9090.83 4497.22 9075.17 4497.22 9054.5V9050.5C4497.22 9037.17 4493.72 9026.17 4486.72 9017.5C4479.72 9008.5 4467.22 9000.5 4449.22 8993.5C4431.55 8986.5 4406.39 8979.33 4373.72 8972C4332.72 8962.67 4300.39 8951.67 4276.72 8939C4253.05 8926.33 4236.05 8910.83 4225.72 8892.5C4215.72 8873.83 4210.72 8851.5 4210.72 8825.5V8821C4210.72 8777 4226.05 8743.67 4256.72 8721C4287.39 8698.33 4333.39 8687 4394.72 8687C4433.39 8687 4467.05 8691.17 4495.72 8699.5C4524.39 8707.83 4548.05 8717.33 4566.72 8728L4575.72 8809.5C4553.39 8797.5 4527.89 8787.5 4499.22 8779.5C4470.89 8771.17 4439.39 8767 4404.72 8767C4381.05 8767 4362.05 8769.33 4347.72 8774C4333.39 8778.33 4323.05 8784.67 4316.72 8793C4310.39 8801 4307.22 8810.67 4307.22 8822V8825.5C4307.22 8837.83 4310.55 8848.67 4317.22 8858C4323.89 8867 4335.72 8875.17 4352.72 8882.5C4370.05 8889.5 4394.05 8896.33 4424.72 8903C4466.05 8911.67 4499.05 8921.83 4523.72 8933.5C4548.39 8945.17 4566.22 8960.17 4577.22 8978.5C4588.22 8996.5 4593.72 9019.83 4593.72 9048.5V9056C4593.72 9103.67 4577.39 9139.5 4544.72 9163.5C4512.05 9187.5 4463.05 9199.5 4397.72 9199.5Z" fill="#333030"/>
<path d="M4864.1 9198C4825.1 9198 4793.77 9192.17 4770.1 9180.5C4746.43 9168.5 4729.27 9150.67 4718.6 9127C4707.93 9103 4702.6 9073.17 4702.6 9037.5V8738.5H4799.6V9026C4799.6 9056 4806.43 9078 4820.1 9092C4833.77 9106 4856.77 9113 4889.1 9113C4908.43 9113 4926.93 9111 4944.6 9107C4962.27 9103 4978.6 9097.33 4993.6 9090L4985.1 9173C4969.1 9181 4950.6 9187.17 4929.6 9191.5C4908.6 9195.83 4886.77 9198 4864.1 9198ZM4626.1 8783V8705H4989.1L4980.6 8783H4626.1ZM4703.6 8713.5L4703.1 8579L4801.1 8567.5L4797.1 8713.5H4703.6Z" fill="#333030"/>
<path d="M5366.09 9188L5370.09 9072L5366.59 9057V8903L5367.09 8878.5C5367.09 8840.83 5357.42 8813.17 5338.09 8795.5C5319.09 8777.83 5288.42 8769 5246.09 8769C5211.75 8769 5179.92 8773.83 5150.59 8783.5C5121.25 8793.17 5094.75 8804.33 5071.09 8817L5080.09 8735C5093.42 8727.33 5109.09 8719.83 5127.09 8712.5C5145.09 8705.17 5165.42 8699.17 5188.09 8694.5C5210.75 8689.83 5235.59 8687.5 5262.59 8687.5C5299.59 8687.5 5330.92 8692 5356.59 8701C5382.25 8709.67 5402.92 8722.33 5418.59 8739C5434.25 8755.67 5445.59 8775.67 5452.59 8799C5459.92 8822.33 5463.59 8848.33 5463.59 8877V9188H5366.09ZM5200.59 9199C5152.25 9199 5115.25 9187.17 5089.59 9163.5C5063.92 9139.5 5051.09 9105.5 5051.09 9061.5V9046.5C5051.09 8999.83 5065.42 8965.33 5094.09 8943C5123.09 8920.33 5168.59 8904.67 5230.59 8896L5377.59 8875L5383.09 8946L5242.09 8966C5208.42 8970.67 5184.42 8978.83 5170.09 8990.5C5155.75 9001.83 5148.59 9018.67 5148.59 9041V9048C5148.59 9070.33 5155.42 9087.5 5169.09 9099.5C5183.09 9111.5 5204.25 9117.5 5232.59 9117.5C5258.59 9117.5 5280.92 9113.17 5299.59 9104.5C5318.25 9095.83 5333.42 9084.33 5345.09 9070C5356.75 9055.33 5364.75 9039.17 5369.09 9021.5L5382.59 9087H5364.59C5359.25 9107 5350.42 9125.5 5338.09 9142.5C5325.75 9159.5 5308.42 9173.17 5286.09 9183.5C5264.09 9193.83 5235.59 9199 5200.59 9199Z" fill="#333030"/>
<path d="M5914.87 9199C5856.53 9199 5812.03 9180.67 5781.37 9144C5751.03 9107.33 5735.87 9053.83 5735.87 8983.5V8906C5735.87 8835 5751.2 8781 5781.87 8744C5812.87 8706.67 5858.53 8688 5918.87 8688C5947.87 8688 5972.7 8692.67 5993.37 8702C6014.37 8711 6031.37 8723.83 6044.37 8740.5C6057.7 8757.17 6067.2 8776.83 6072.87 8799.5H6105.37L6077.87 8890C6076.87 8863.33 6071.03 8841 6060.37 8823C6049.7 8804.67 6035.03 8790.83 6016.37 8781.5C5997.7 8772.17 5975.87 8767.5 5950.87 8767.5C5913.2 8767.5 5884.37 8778.33 5864.37 8800C5844.37 8821.67 5834.37 8853.83 5834.37 8896.5V8990C5834.37 9031.67 5844.2 9063.33 5863.87 9085C5883.87 9106.67 5912.87 9117.5 5950.87 9117.5C5973.87 9117.5 5994.03 9113.17 6011.37 9104.5C6029.03 9095.83 6043.7 9084 6055.37 9069C6067.03 9054 6075.03 9037.17 6079.37 9018.5L6102.37 9087.5H6073.87C6068.53 9107.83 6059.53 9126.5 6046.87 9143.5C6034.53 9160.5 6017.7 9174 5996.37 9184C5975.03 9194 5947.87 9199 5914.87 9199ZM6075.37 9188L6079.37 9073.5L6077.87 9042.5V8839.5L6078.37 8820.5L6075.87 8682V8526H6173.37V9188H6075.37Z" fill="#333030"/>
<path d="M6511.84 9199.5C6433.84 9199.5 6375.34 9181 6336.34 9144C6297.67 9106.67 6278.34 9053 6278.34 8983V8903C6278.34 8834 6296.34 8780.67 6332.34 8743C6368.67 8705 6421.5 8686 6490.84 8686C6537.84 8686 6577 8694.67 6608.34 8712C6639.67 8729 6663.17 8753.17 6678.84 8784.5C6694.5 8815.83 6702.34 8853 6702.34 8896V8914.5C6702.34 8925.83 6701.84 8937.33 6700.84 8949C6699.84 8960.67 6698.5 8971.83 6696.84 8982.5H6606.84C6607.5 8965.17 6607.84 8948.83 6607.84 8933.5C6608.17 8918.17 6608.34 8904.17 6608.34 8891.5C6608.34 8864.5 6604 8841.67 6595.34 8823C6586.67 8804.33 6573.67 8790.17 6556.34 8780.5C6539 8770.5 6517.17 8765.5 6490.84 8765.5C6451.84 8765.5 6422.84 8776.67 6403.84 8799C6384.84 8821 6375.34 8852.5 6375.34 8893.5V8939.5L6375.84 8951V8994.5C6375.84 9012.83 6378.5 9029.5 6383.84 9044.5C6389.5 9059.5 6398.34 9072.5 6410.34 9083.5C6422.67 9094.17 6438.5 9102.5 6457.84 9108.5C6477.17 9114.17 6500.67 9117 6528.34 9117C6559.67 9117 6589 9113 6616.34 9105C6644 9097 6670 9086.33 6694.34 9073L6685.34 9156.5C6663.34 9169.5 6637.67 9180 6608.34 9188C6579.34 9195.67 6547.17 9199.5 6511.84 9199.5ZM6330.34 8982.5V8909H6676.84V8982.5H6330.34Z" fill="#333030"/>
<path d="M6977 9188L7000 8549H7152.5L7290 8987H7296.5L7434 8549H7586.5L7609.5 9188H7512L7504.5 8932.5L7497.5 8654.5H7489.5L7343.5 9114H7243L7097 8654.5H7089L7074.5 9188H6977Z" fill="#333030"/>
<path d="M8018.43 9188L8022.43 9072L8018.93 9057V8903L8019.43 8878.5C8019.43 8840.83 8009.76 8813.17 7990.43 8795.5C7971.43 8777.83 7940.76 8769 7898.43 8769C7864.1 8769 7832.26 8773.83 7802.93 8783.5C7773.6 8793.17 7747.1 8804.33 7723.43 8817L7732.43 8735C7745.76 8727.33 7761.43 8719.83 7779.43 8712.5C7797.43 8705.17 7817.76 8699.17 7840.43 8694.5C7863.1 8689.83 7887.93 8687.5 7914.93 8687.5C7951.93 8687.5 7983.26 8692 8008.93 8701C8034.6 8709.67 8055.26 8722.33 8070.93 8739C8086.6 8755.67 8097.93 8775.67 8104.93 8799C8112.26 8822.33 8115.93 8848.33 8115.93 8877V9188H8018.43ZM7852.93 9199C7804.6 9199 7767.6 9187.17 7741.93 9163.5C7716.26 9139.5 7703.43 9105.5 7703.43 9061.5V9046.5C7703.43 8999.83 7717.76 8965.33 7746.43 8943C7775.43 8920.33 7820.93 8904.67 7882.93 8896L8029.93 8875L8035.43 8946L7894.43 8966C7860.76 8970.67 7836.76 8978.83 7822.43 8990.5C7808.1 9001.83 7800.93 9018.67 7800.93 9041V9048C7800.93 9070.33 7807.76 9087.5 7821.43 9099.5C7835.43 9111.5 7856.6 9117.5 7884.93 9117.5C7910.93 9117.5 7933.26 9113.17 7951.93 9104.5C7970.6 9095.83 7985.76 9084.33 7997.43 9070C8009.1 9055.33 8017.1 9039.17 8021.43 9021.5L8034.93 9087H8016.93C8011.6 9107 8002.76 9125.5 7990.43 9142.5C7978.1 9159.5 7960.76 9173.17 7938.43 9183.5C7916.43 9193.83 7887.93 9199 7852.93 9199Z" fill="#333030"/>
<path d="M8325.91 8892.5L8304.91 8816H8328.91C8339.24 8777.33 8356.57 8747 8380.91 8725C8405.24 8702.67 8438.41 8691.5 8480.41 8691.5C8490.41 8691.5 8499.24 8692.33 8506.91 8694C8514.91 8695.33 8522.07 8697 8528.41 8699L8534.41 8794.5C8526.41 8791.83 8517.41 8789.83 8507.41 8788.5C8497.41 8786.83 8486.57 8786 8474.91 8786C8439.24 8786 8408.41 8795.17 8382.41 8813.5C8356.41 8831.83 8337.57 8858.17 8325.91 8892.5ZM8231.91 9188V8699H8327.41L8322.91 8841.5L8329.91 8848.5V9188H8231.91Z" fill="#333030"/>
<path d="M8792.64 9199.5C8719.97 9199.5 8665.97 9180.33 8630.64 9142C8595.64 9103.33 8578.14 9048.83 8578.14 8978.5V8908C8578.14 8837.33 8595.81 8782.83 8631.14 8744.5C8666.47 8706.17 8720.31 8687 8792.64 8687C8812.64 8687 8830.97 8688.83 8847.64 8692.5C8864.64 8696.17 8879.97 8701 8893.64 8707C8907.31 8712.67 8918.97 8718.67 8928.64 8725L8937.14 8809C8921.14 8797.67 8902.64 8788.17 8881.64 8780.5C8860.64 8772.5 8836.14 8768.5 8808.14 8768.5C8763.47 8768.5 8730.31 8780.67 8708.64 8805C8687.31 8829 8676.64 8864 8676.64 8910V8976C8676.64 9021 8687.31 9055.67 8708.64 9080C8730.31 9104.33 8763.47 9116.5 8808.14 9116.5C8836.47 9116.5 8861.47 9112.67 8883.14 9105C8904.81 9097 8924.31 9087.33 8941.64 9076L8933.14 9161C8917.81 9170.67 8898.14 9179.5 8874.14 9187.5C8850.47 9195.5 8823.31 9199.5 8792.64 9199.5Z" fill="#333030"/>
<path d="M9225.88 9200.5C9153.87 9200.5 9099.21 9181.33 9061.88 9143C9024.54 9104.67 9005.88 9049.5 9005.88 8977.5V8908C9005.88 8836.33 9024.54 8781.5 9061.88 8743.5C9099.21 8705.17 9153.87 8686 9225.88 8686C9297.88 8686 9352.38 8705.17 9389.38 8743.5C9426.71 8781.5 9445.38 8836.33 9445.38 8908V8977.5C9445.38 9049.5 9426.71 9104.67 9389.38 9143C9352.38 9181.33 9297.88 9200.5 9225.88 9200.5ZM9225.88 9121C9265.54 9121 9295.71 9109.17 9316.38 9085.5C9337.04 9061.83 9347.38 9027.83 9347.38 8983.5V8902C9347.38 8858 9337.04 8824.33 9316.38 8801C9295.71 8777.33 9265.54 8765.5 9225.88 8765.5C9186.21 8765.5 9156.04 8777.33 9135.38 8801C9114.71 8824.33 9104.38 8858 9104.38 8902V8983.5C9104.38 9027.83 9114.71 9061.83 9135.38 9085.5C9156.04 9109.17 9186.21 9121 9225.88 9121Z" fill="#333030"/>
<path d="M9835.07 9188H9734.57V8549H9835.07V9188Z" fill="#333030"/>
<path d="M10082.1 9188H9981.64V8549H10082.1V9188Z" fill="#333030"/>
</svg>
